<svg xmlns="http://www.w3.org/2000/svg" viewBox="0 0 161.29 11.88"><defs><style>.cls-1,.cls-2{fill:none;stroke:#fff;stroke-linecap:round;stroke-linejoin:round;}.cls-1{stroke-width:0.36px;}.cls-2{stroke-width:0.24px;}</style></defs><title>2m</title><g id="Layer_2" data-name="Layer 2"><g id="Layer_1-2" data-name="Layer 1"><line class="cls-1" x1="0.96" y1="4.98" x2="3.48" y2="4.98"/><line class="cls-1" x1="0.96" y1="3.9" x2="3.48" y2="3.9"/><line class="cls-1" x1="0.24" y1="1.38" x2="4.32" y2="1.38"/><polyline class="cls-1" points="0.24 6.78 4.32 6.78 4.32 1.38"/><line class="cls-1" x1="0.24" y1="5.82" x2="0.24" y2="6.78"/><path class="cls-1" d="M.18,5.8a1.68,1.68,0,0,0,.69-.87"/><line class="cls-1" x1="3.48" y1="3.9" x2="3.48" y2="4.98"/><path class="cls-1" d="M.92,4A1.68,1.68,0,0,0,.18,3"/><line class="cls-1" x1="0.24" y1="1.38" x2="0.24" y2="2.82"/><line class="cls-1" x1="1.32" y1="0.18" x2="2.76" y2="0.18"/><line class="cls-1" x1="3" y1="0.42" x2="2.88" y2="1.38"/><line class="cls-1" x1="2.64" y1="3.9" x2="2.52" y2="4.98"/><path class="cls-1" d="M3,.45A.24.24,0,0,0,2.79.18h0"/><circle class="cls-1" cx="1.56" cy="11.22" r="0.12"/><line class="cls-1" x1="1.8" y1="10.86" x2="2.28" y2="6.78"/><line class="cls-1" x1="1.08" y1="1.38" x2="1.08" y2="0.42"/><line class="cls-1" x1="1.08" y1="3.9" x2="1.08" y2="4.98"/><line class="cls-1" x1="1.08" y1="6.78" x2="1.08" y2="11.22"/><path class="cls-1" d="M1.32.18a.24.24,0,0,0-.24.24h0"/><path class="cls-1" d="M1.08,11.22a.48.48,0,1,0,.8-.36"/><polyline class="cls-1" points="4.32 2.46 156.96 2.46 156.96 6.42 4.32 6.42 4.32 2.46"/><path class="cls-1" d="M159.4,10.86a.48.48,0,1,0,.8.36"/><path class="cls-1" d="M160.2.42A.24.24,0,0,0,160,.18h0"/><line class="cls-1" x1="160.2" y1="6.78" x2="160.2" y2="11.22"/><line class="cls-1" x1="160.2" y1="3.9" x2="160.2" y2="4.98"/><line class="cls-1" x1="160.2" y1="1.38" x2="160.2" y2="0.42"/><line class="cls-1" x1="159.36" y1="10.86" x2="159" y2="6.78"/><circle class="cls-1" cx="159.72" cy="11.22" r="0.12"/><path class="cls-1" d="M158.52.18a.24.24,0,0,0-.24.24v0"/><line class="cls-1" x1="158.64" y1="3.9" x2="158.76" y2="4.98"/><line class="cls-1" x1="158.28" y1="0.42" x2="158.4" y2="1.38"/><line class="cls-1" x1="159.96" y1="0.18" x2="158.52" y2="0.18"/><line class="cls-1" x1="161.04" y1="1.38" x2="161.04" y2="2.82"/><path class="cls-1" d="M161.11,3a1.68,1.68,0,0,0-.74,1"/><line class="cls-1" x1="157.68" y1="3.9" x2="157.68" y2="4.98"/><path class="cls-1" d="M160.42,4.94a1.68,1.68,0,0,0,.69.87"/><line class="cls-1" x1="161.04" y1="5.82" x2="161.04" y2="6.78"/><polyline class="cls-1" points="156.96 1.38 156.96 6.78 161.04 6.78"/><line class="cls-1" x1="161.04" y1="1.38" x2="156.96" y2="1.38"/><line class="cls-1" x1="160.2" y1="3.9" x2="157.68" y2="3.9"/><line class="cls-1" x1="160.32" y1="4.98" x2="157.68" y2="4.98"/><line class="cls-2" x1="4.32" y1="4.38" x2="20.64" y2="4.38"/><line class="cls-2" x1="23.76" y1="4.38" x2="26.88" y2="4.38"/><line class="cls-2" x1="29.88" y1="4.38" x2="48.36" y2="4.38"/><line class="cls-2" x1="51.48" y1="4.38" x2="54.48" y2="4.38"/><line class="cls-2" x1="57.6" y1="4.38" x2="75.96" y2="4.38"/><line class="cls-2" x1="79.08" y1="4.38" x2="82.2" y2="4.38"/><line class="cls-2" x1="85.2" y1="4.38" x2="103.68" y2="4.38"/><line class="cls-2" x1="106.68" y1="4.38" x2="109.8" y2="4.38"/><line class="cls-2" x1="112.92" y1="4.38" x2="131.28" y2="4.38"/><line class="cls-2" x1="134.4" y1="4.38" x2="137.52" y2="4.38"/><line class="cls-2" x1="140.52" y1="4.38" x2="156.96" y2="4.38"/></g></g></svg>