<svg xmlns="http://www.w3.org/2000/svg" viewBox="0 0 202.61 4.44"><defs><style>.cls-1,.cls-3{fill:none;stroke:#fff;stroke-linecap:round;stroke-linejoin:round;}.cls-1{stroke-width:0.36px;}.cls-2{fill:#fff;}.cls-3{stroke-width:0.24px;}</style></defs><title>2.5m plan</title><g id="Layer_2" data-name="Layer 2"><g id="Layer_1-2" data-name="Layer 1"><path class="cls-1" d="M.18,2.52a1.92,1.92,0,0,0,0-.6"/><line class="cls-1" x1="1.28" y1="2.46" x2="4.4" y2="2.46"/><line class="cls-1" x1="4.4" y1="4.14" x2="4.4" y2="0.18"/><rect class="cls-2" x="1.16" y="2.34" width="0.12" height="0.12"/><line class="cls-1" x1="1.16" y1="1.98" x2="1.16" y2="2.46"/><rect class="cls-2" x="1.16" y="1.86" width="0.12" height="0.12"/><line class="cls-1" x1="1.28" y1="1.98" x2="4.4" y2="1.98"/><rect class="cls-2" x="1.16" y="1.86" width="0.12" height="0.12"/><line class="cls-1" x1="1.16" y1="2.46" x2="1.16" y2="1.98"/><rect class="cls-2" x="1.16" y="2.34" width="0.12" height="0.12"/><line class="cls-1" x1="3.68" y1="4.14" x2="4.4" y2="4.14"/><path class="cls-1" d="M3.62,4.13h.07"/><line class="cls-1" x1="0.44" y1="2.94" x2="3.56" y2="4.14"/><path class="cls-1" d="M.32,2.7a.24.24,0,0,0,.15.22"/><line class="cls-1" x1="0.32" y1="1.74" x2="0.32" y2="1.86"/><line class="cls-1" x1="0.32" y1="2.58" x2="0.32" y2="2.7"/><path class="cls-1" d="M.47,1.52a.24.24,0,0,0-.15.22"/><line class="cls-1" x1="3.56" y1="0.3" x2="0.44" y2="1.5"/><path class="cls-1" d="M3.68.3H3.62"/><line class="cls-1" x1="4.4" y1="0.18" x2="3.68" y2="0.18"/><line class="cls-3" x1="4.4" y1="2.22" x2="13.76" y2="2.22"/><line class="cls-3" x1="16.76" y1="2.22" x2="19.88" y2="2.22"/><line class="cls-3" x1="23" y1="2.22" x2="41.36" y2="2.22"/><line class="cls-3" x1="44.48" y1="2.22" x2="47.48" y2="2.22"/><line class="cls-3" x1="50.6" y1="2.22" x2="69.08" y2="2.22"/><line class="cls-3" x1="72.08" y1="2.22" x2="75.2" y2="2.22"/><line class="cls-3" x1="78.32" y1="2.22" x2="96.68" y2="2.22"/><line class="cls-3" x1="99.8" y1="2.22" x2="102.8" y2="2.22"/><line class="cls-3" x1="105.92" y1="2.22" x2="124.4" y2="2.22"/><line class="cls-3" x1="127.4" y1="2.22" x2="130.52" y2="2.22"/><line class="cls-3" x1="133.64" y1="2.22" x2="152" y2="2.22"/><line class="cls-3" x1="155.12" y1="2.22" x2="158.12" y2="2.22"/><line class="cls-3" x1="161.24" y1="2.22" x2="179.72" y2="2.22"/><line class="cls-3" x1="182.72" y1="2.22" x2="185.84" y2="2.22"/><line class="cls-3" x1="188.96" y1="2.22" x2="198.2" y2="2.22"/><polyline class="cls-1" points="4.4 0.18 198.2 0.18 198.2 4.26 4.4 4.26 4.4 0.18"/><path class="cls-1" d="M202.43,1.92a1.92,1.92,0,0,0,0,.6"/><line class="cls-1" x1="201.44" y1="2.46" x2="198.2" y2="2.46"/><line class="cls-1" x1="198.2" y1="4.14" x2="198.2" y2="0.18"/><rect class="cls-2" x="201.32" y="2.34" width="0.12" height="0.12"/><line class="cls-1" x1="201.44" y1="1.98" x2="201.44" y2="2.46"/><rect class="cls-2" x="201.32" y="1.86" width="0.12" height="0.12"/><line class="cls-1" x1="201.44" y1="1.98" x2="198.2" y2="1.98"/><rect class="cls-2" x="201.32" y="1.86" width="0.12" height="0.12"/><line class="cls-1" x1="201.44" y1="2.46" x2="201.44" y2="1.98"/><rect class="cls-2" x="201.32" y="2.34" width="0.12" height="0.12"/><line class="cls-1" x1="199.04" y1="4.14" x2="198.2" y2="4.14"/><path class="cls-1" d="M199,4.14h.07"/><line class="cls-1" x1="202.16" y1="2.94" x2="199.04" y2="4.14"/><path class="cls-1" d="M202.13,2.92a.24.24,0,0,0,.15-.22"/><line class="cls-1" x1="202.28" y1="1.74" x2="202.28" y2="1.86"/><line class="cls-1" x1="202.28" y1="2.58" x2="202.28" y2="2.7"/><path class="cls-1" d="M202.28,1.74a.24.24,0,0,0-.15-.22"/><line class="cls-1" x1="199.04" y1="0.3" x2="202.16" y2="1.5"/><path class="cls-1" d="M199.11.31H199"/><line class="cls-1" x1="198.2" y1="0.18" x2="199.04" y2="0.18"/></g></g></svg>