<svg xmlns="http://www.w3.org/2000/svg" viewBox="0 0 120.17 4.44"><defs><style>.cls-1,.cls-3{fill:none;stroke:#fff;stroke-linecap:round;stroke-linejoin:round;}.cls-1{stroke-width:0.36px;}.cls-2{fill:#fff;}.cls-3{stroke-width:0.24px;}</style></defs><title>Asset 11</title><g id="Layer_2" data-name="Layer 2"><g id="Layer_1-2" data-name="Layer 1"><path class="cls-1" d="M.18,2.52a1.92,1.92,0,0,0,0-.6"/><line class="cls-1" x1="1.28" y1="2.46" x2="4.4" y2="2.46"/><line class="cls-1" x1="4.4" y1="4.14" x2="4.4" y2="0.3"/><rect class="cls-2" x="1.16" y="2.34" width="0.12" height="0.12"/><line class="cls-1" x1="1.16" y1="1.98" x2="1.16" y2="2.46"/><rect class="cls-2" x="1.16" y="1.86" width="0.12" height="0.12"/><line class="cls-1" x1="1.28" y1="1.98" x2="4.4" y2="1.98"/><rect class="cls-2" x="1.16" y="1.86" width="0.12" height="0.12"/><line class="cls-1" x1="1.16" y1="2.46" x2="1.16" y2="1.98"/><rect class="cls-2" x="1.16" y="2.34" width="0.12" height="0.12"/><line class="cls-1" x1="3.68" y1="4.14" x2="4.4" y2="4.14"/><path class="cls-1" d="M3.62,4.13h.07"/><line class="cls-1" x1="0.44" y1="2.94" x2="3.56" y2="4.14"/><path class="cls-1" d="M.32,2.7a.24.24,0,0,0,.15.22"/><line class="cls-1" x1="0.32" y1="1.74" x2="0.32" y2="1.86"/><line class="cls-1" x1="0.32" y1="2.58" x2="0.32" y2="2.7"/><path class="cls-1" d="M.47,1.52a.24.24,0,0,0-.15.22"/><line class="cls-1" x1="3.56" y1="0.3" x2="0.44" y2="1.5"/><path class="cls-1" d="M3.68.3H3.62"/><line class="cls-1" x1="4.4" y1="0.3" x2="3.68" y2="0.3"/><line class="cls-3" x1="4.4" y1="2.22" x2="14" y2="2.22"/><line class="cls-3" x1="17.12" y1="2.22" x2="20.12" y2="2.22"/><line class="cls-3" x1="23.24" y1="2.22" x2="41.72" y2="2.22"/><line class="cls-3" x1="44.72" y1="2.22" x2="47.84" y2="2.22"/><line class="cls-3" x1="50.96" y1="2.22" x2="69.32" y2="2.22"/><line class="cls-3" x1="72.44" y1="2.22" x2="75.44" y2="2.22"/><line class="cls-3" x1="78.56" y1="2.22" x2="97.04" y2="2.22"/><line class="cls-3" x1="100.04" y1="2.22" x2="103.16" y2="2.22"/><line class="cls-3" x1="106.28" y1="2.22" x2="115.76" y2="2.22"/><polyline class="cls-1" points="4.4 0.18 115.76 0.18 115.76 4.26 4.4 4.26 4.4 0.18"/><path class="cls-1" d="M120,1.92a1.92,1.92,0,0,0,0,.6"/><line class="cls-1" x1="119" y1="2.46" x2="115.76" y2="2.46"/><line class="cls-1" x1="115.76" y1="4.14" x2="115.76" y2="0.3"/><rect class="cls-2" x="118.88" y="2.34" width="0.12" height="0.12"/><line class="cls-1" x1="119.12" y1="1.98" x2="119.12" y2="2.46"/><rect class="cls-2" x="118.88" y="1.86" width="0.12" height="0.12"/><line class="cls-1" x1="119" y1="1.98" x2="115.76" y2="1.98"/><rect class="cls-2" x="118.88" y="1.86" width="0.12" height="0.12"/><line class="cls-1" x1="119.12" y1="2.46" x2="119.12" y2="1.98"/><rect class="cls-2" x="118.88" y="2.34" width="0.12" height="0.12"/><line class="cls-1" x1="116.6" y1="4.14" x2="115.76" y2="4.14"/><path class="cls-1" d="M116.6,4.14h.07"/><line class="cls-1" x1="119.84" y1="2.94" x2="116.72" y2="4.14"/><path class="cls-1" d="M119.81,2.92A.24.24,0,0,0,120,2.7"/><line class="cls-1" x1="119.96" y1="1.74" x2="119.96" y2="1.86"/><line class="cls-1" x1="119.96" y1="2.58" x2="119.96" y2="2.7"/><path class="cls-1" d="M120,1.74a.24.24,0,0,0-.15-.22"/><line class="cls-1" x1="116.72" y1="0.3" x2="119.84" y2="1.5"/><path class="cls-1" d="M116.67.31h-.07"/><line class="cls-1" x1="115.76" y1="0.3" x2="116.6" y2="0.3"/></g></g></svg>