<svg xmlns="http://www.w3.org/2000/svg" viewBox="0 0 78.85 11.88"><defs><style>.cls-1,.cls-2{fill:none;stroke:#fff;stroke-linecap:round;stroke-linejoin:round;}.cls-1{stroke-width:0.36px;}.cls-2{stroke-width:0.24px;}</style></defs><title>1m</title><g id="Layer_2" data-name="Layer 2"><g id="Layer_1-2" data-name="Layer 1"><line class="cls-1" x1="0.96" y1="4.98" x2="3.48" y2="4.98"/><line class="cls-1" x1="0.96" y1="3.9" x2="3.48" y2="3.9"/><line class="cls-1" x1="0.24" y1="1.38" x2="4.32" y2="1.38"/><polyline class="cls-1" points="0.24 6.78 4.32 6.78 4.32 1.38"/><line class="cls-1" x1="0.24" y1="5.82" x2="0.24" y2="6.78"/><path class="cls-1" d="M.18,5.8a1.68,1.68,0,0,0,.69-.87"/><line class="cls-1" x1="3.48" y1="3.9" x2="3.48" y2="4.98"/><path class="cls-1" d="M.92,4A1.68,1.68,0,0,0,.18,3"/><line class="cls-1" x1="0.24" y1="1.38" x2="0.24" y2="2.94"/><line class="cls-1" x1="1.32" y1="0.18" x2="2.76" y2="0.18"/><line class="cls-1" x1="3" y1="0.42" x2="2.88" y2="1.38"/><line class="cls-1" x1="2.64" y1="3.9" x2="2.52" y2="4.98"/><path class="cls-1" d="M3,.45A.24.24,0,0,0,2.79.18h0"/><circle class="cls-1" cx="1.56" cy="11.22" r="0.12"/><line class="cls-1" x1="1.8" y1="10.86" x2="2.28" y2="6.78"/><line class="cls-1" x1="1.08" y1="1.38" x2="1.08" y2="0.42"/><line class="cls-1" x1="1.08" y1="3.9" x2="1.08" y2="4.98"/><line class="cls-1" x1="1.08" y1="6.78" x2="1.08" y2="11.22"/><path class="cls-1" d="M1.32.18a.24.24,0,0,0-.24.24h0"/><path class="cls-1" d="M1.08,11.22a.48.48,0,1,0,.8-.36"/><line class="cls-2" x1="4.32" y1="4.5" x2="21" y2="4.5"/><line class="cls-2" x1="24" y1="4.5" x2="27.12" y2="4.5"/><line class="cls-2" x1="30.24" y1="4.5" x2="48.6" y2="4.5"/><line class="cls-2" x1="51.72" y1="4.5" x2="54.84" y2="4.5"/><line class="cls-2" x1="57.84" y1="4.5" x2="74.52" y2="4.5"/><polyline class="cls-1" points="4.32 2.46 74.52 2.46 74.52 6.42 4.32 6.42 4.32 2.46"/><path class="cls-1" d="M77,10.86a.48.48,0,1,0,.8.36"/><path class="cls-1" d="M77.76.42a.24.24,0,0,0-.24-.24h0"/><line class="cls-1" x1="77.76" y1="6.78" x2="77.76" y2="11.22"/><line class="cls-1" x1="77.76" y1="3.9" x2="77.76" y2="4.98"/><line class="cls-1" x1="77.76" y1="1.38" x2="77.76" y2="0.42"/><line class="cls-1" x1="77.04" y1="10.86" x2="76.56" y2="6.78"/><circle class="cls-1" cx="77.28" cy="11.22" r="0.12"/><path class="cls-1" d="M76.08.18a.24.24,0,0,0-.24.24v0"/><line class="cls-1" x1="76.2" y1="3.9" x2="76.32" y2="4.98"/><line class="cls-1" x1="75.84" y1="0.42" x2="75.96" y2="1.38"/><line class="cls-1" x1="77.52" y1="0.18" x2="76.08" y2="0.18"/><line class="cls-1" x1="78.6" y1="1.38" x2="78.6" y2="2.94"/><path class="cls-1" d="M78.67,3a1.68,1.68,0,0,0-.74,1"/><line class="cls-1" x1="75.36" y1="3.9" x2="75.36" y2="4.98"/><path class="cls-1" d="M78,4.94a1.68,1.68,0,0,0,.69.87"/><line class="cls-1" x1="78.6" y1="5.82" x2="78.6" y2="6.78"/><polyline class="cls-1" points="74.52 1.38 74.52 6.78 78.6 6.78"/><line class="cls-1" x1="78.6" y1="1.38" x2="74.52" y2="1.38"/><line class="cls-1" x1="77.88" y1="3.9" x2="75.36" y2="3.9"/><line class="cls-1" x1="77.88" y1="4.98" x2="75.36" y2="4.98"/></g></g></svg>