<svg xmlns="http://www.w3.org/2000/svg" viewBox="0 0 243.77 4.32"><defs><style>.cls-1,.cls-3{fill:none;stroke:#fff;stroke-linecap:round;stroke-linejoin:round;}.cls-1{stroke-width:0.36px;}.cls-2{fill:#fff;}.cls-3{stroke-width:0.24px;}</style></defs><title>3m plan</title><g id="Layer_2" data-name="Layer 2"><g id="Layer_1-2" data-name="Layer 1"><path class="cls-1" d="M.18,2.52a1.92,1.92,0,0,0,0-.6"/><line class="cls-1" x1="1.28" y1="2.46" x2="4.4" y2="2.46"/><line class="cls-1" x1="4.4" y1="4.14" x2="4.4" y2="0.18"/><rect class="cls-2" x="1.16" y="2.34" width="0.12" height="0.12"/><line class="cls-1" x1="1.16" y1="1.98" x2="1.16" y2="2.46"/><rect class="cls-2" x="1.16" y="1.86" width="0.12" height="0.12"/><line class="cls-1" x1="1.28" y1="1.98" x2="4.4" y2="1.98"/><rect class="cls-2" x="1.16" y="1.86" width="0.12" height="0.12"/><line class="cls-1" x1="1.16" y1="2.46" x2="1.16" y2="1.98"/><rect class="cls-2" x="1.16" y="2.34" width="0.12" height="0.12"/><line class="cls-1" x1="3.68" y1="4.14" x2="4.4" y2="4.14"/><path class="cls-1" d="M3.62,4.13h.07"/><line class="cls-1" x1="0.44" y1="2.94" x2="3.56" y2="4.14"/><path class="cls-1" d="M.32,2.7a.24.24,0,0,0,.15.22"/><line class="cls-1" x1="0.32" y1="1.74" x2="0.32" y2="1.86"/><line class="cls-1" x1="0.32" y1="2.58" x2="0.32" y2="2.7"/><path class="cls-1" d="M.47,1.52a.24.24,0,0,0-.15.22"/><line class="cls-1" x1="3.56" y1="0.3" x2="0.44" y2="1.5"/><path class="cls-1" d="M3.68.18H3.62"/><line class="cls-1" x1="4.4" y1="0.18" x2="3.68" y2="0.18"/><line class="cls-3" x1="4.4" y1="2.22" x2="20.48" y2="2.22"/><line class="cls-3" x1="23.6" y1="2.22" x2="26.6" y2="2.22"/><line class="cls-3" x1="29.72" y1="2.22" x2="48.2" y2="2.22"/><line class="cls-3" x1="51.2" y1="2.22" x2="54.32" y2="2.22"/><line class="cls-3" x1="57.44" y1="2.22" x2="75.8" y2="2.22"/><line class="cls-3" x1="78.92" y1="2.22" x2="81.92" y2="2.22"/><line class="cls-3" x1="85.04" y1="2.22" x2="103.52" y2="2.22"/><line class="cls-3" x1="106.52" y1="2.22" x2="109.64" y2="2.22"/><line class="cls-3" x1="112.64" y1="2.22" x2="131.12" y2="2.22"/><line class="cls-3" x1="134.24" y1="2.22" x2="137.24" y2="2.22"/><line class="cls-3" x1="140.36" y1="2.22" x2="158.84" y2="2.22"/><line class="cls-3" x1="161.84" y1="2.22" x2="164.96" y2="2.22"/><line class="cls-3" x1="167.96" y1="2.22" x2="186.44" y2="2.22"/><line class="cls-3" x1="189.56" y1="2.22" x2="192.56" y2="2.22"/><line class="cls-3" x1="195.68" y1="2.22" x2="214.16" y2="2.22"/><line class="cls-3" x1="217.16" y1="2.22" x2="220.28" y2="2.22"/><line class="cls-3" x1="223.28" y1="2.22" x2="239.36" y2="2.22"/><polyline class="cls-1" points="4.4 0.18 239.36 0.18 239.36 4.14 4.4 4.14 4.4 0.18"/><path class="cls-1" d="M243.59,1.92a1.92,1.92,0,0,0,0,.6"/><line class="cls-1" x1="242.6" y1="2.46" x2="239.36" y2="2.46"/><line class="cls-1" x1="239.36" y1="4.14" x2="239.36" y2="0.18"/><rect class="cls-2" x="242.48" y="2.34" width="0.12" height="0.12"/><line class="cls-1" x1="242.72" y1="1.98" x2="242.72" y2="2.46"/><rect class="cls-2" x="242.48" y="1.86" width="0.12" height="0.12"/><line class="cls-1" x1="242.6" y1="1.98" x2="239.36" y2="1.98"/><rect class="cls-2" x="242.48" y="1.86" width="0.12" height="0.12"/><line class="cls-1" x1="242.72" y1="2.46" x2="242.72" y2="1.98"/><rect class="cls-2" x="242.48" y="2.34" width="0.12" height="0.12"/><line class="cls-1" x1="240.2" y1="4.14" x2="239.36" y2="4.14"/><path class="cls-1" d="M240.2,4.14h.07"/><line class="cls-1" x1="243.32" y1="2.94" x2="240.2" y2="4.14"/><path class="cls-1" d="M243.41,2.92a.24.24,0,0,0,.15-.22"/><line class="cls-1" x1="243.56" y1="1.74" x2="243.56" y2="1.86"/><line class="cls-1" x1="243.56" y1="2.58" x2="243.56" y2="2.7"/><path class="cls-1" d="M243.56,1.74a.24.24,0,0,0-.15-.22"/><line class="cls-1" x1="240.2" y1="0.3" x2="243.32" y2="1.5"/><path class="cls-1" d="M240.27.19h-.07"/><line class="cls-1" x1="239.36" y1="0.18" x2="240.2" y2="0.18"/></g></g></svg>