<svg xmlns="http://www.w3.org/2000/svg" viewBox="0 0 161.17 135.36"><defs><style>.cls-1,.cls-2{fill:none;stroke:#fff;stroke-linecap:round;stroke-linejoin:round;}.cls-1{stroke-width:0.24px;}.cls-2{stroke-width:0.36px;}</style></defs><title>2m, 1.5m</title><g id="Layer_2" data-name="Layer 2"><g id="Layer_1-2" data-name="Layer 1"><line class="cls-1" x1="4.32" y1="127.98" x2="12.48" y2="121.38"/><line class="cls-1" x1="14.88" y1="119.34" x2="17.28" y2="117.42"/><line class="cls-1" x1="19.68" y1="115.5" x2="33.96" y2="103.86"/><line class="cls-1" x1="36.36" y1="101.94" x2="38.76" y2="100.02"/><line class="cls-1" x1="41.16" y1="98.1" x2="55.56" y2="86.46"/><line class="cls-1" x1="57.84" y1="84.54" x2="60.24" y2="82.62"/><line class="cls-1" x1="62.64" y1="80.7" x2="77.04" y2="69.06"/><line class="cls-1" x1="79.44" y1="67.14" x2="81.72" y2="65.22"/><line class="cls-1" x1="84.12" y1="63.3" x2="98.52" y2="51.66"/><line class="cls-1" x1="100.92" y1="49.74" x2="103.2" y2="47.82"/><line class="cls-1" x1="105.6" y1="45.9" x2="120" y2="34.26"/><line class="cls-1" x1="122.4" y1="32.34" x2="124.8" y2="30.42"/><line class="cls-1" x1="127.08" y1="28.5" x2="141.48" y2="16.86"/><line class="cls-1" x1="143.88" y1="14.94" x2="146.28" y2="13.02"/><line class="cls-1" x1="148.68" y1="11.1" x2="156.84" y2="4.38"/><line class="cls-2" x1="4.44" y1="130.38" x2="157.08" y2="6.78"/><line class="cls-2" x1="4.32" y1="125.46" x2="156.84" y2="1.86"/><path class="cls-2" d="M159.4,10.86a.48.48,0,1,0,.8.36"/><path class="cls-2" d="M160.2.42A.24.24,0,0,0,160,.18h0"/><line class="cls-2" x1="160.2" y1="6.78" x2="160.2" y2="11.22"/><line class="cls-2" x1="160.2" y1="3.9" x2="160.2" y2="4.86"/><line class="cls-2" x1="160.2" y1="1.38" x2="160.2" y2="0.42"/><line class="cls-2" x1="159.36" y1="10.74" x2="158.88" y2="6.78"/><circle class="cls-2" cx="159.72" cy="11.22" r="0.12"/><path class="cls-2" d="M158.4.18a.24.24,0,0,0-.24.24v0"/><line class="cls-2" x1="158.64" y1="3.9" x2="158.64" y2="4.86"/><line class="cls-2" x1="158.16" y1="0.42" x2="158.28" y2="1.38"/><line class="cls-2" x1="159.96" y1="0.18" x2="158.4" y2="0.18"/><line class="cls-2" x1="160.92" y1="1.38" x2="160.92" y2="2.82"/><path class="cls-2" d="M161,3a1.68,1.68,0,0,0-.74,1"/><line class="cls-2" x1="157.68" y1="3.9" x2="157.68" y2="4.86"/><path class="cls-2" d="M160.3,4.94a1.68,1.68,0,0,0,.69.87"/><line class="cls-2" x1="160.92" y1="5.82" x2="160.92" y2="6.78"/><polyline class="cls-2" points="156.84 1.38 156.84 6.78 160.92 6.78"/><line class="cls-2" x1="160.92" y1="1.38" x2="156.84" y2="1.38"/><line class="cls-2" x1="160.2" y1="3.9" x2="157.68" y2="3.9"/><line class="cls-2" x1="160.2" y1="4.86" x2="157.68" y2="4.86"/><line class="cls-2" x1="4.32" y1="130.38" x2="4.44" y2="130.38"/><line class="cls-2" x1="0.84" y1="128.46" x2="3.48" y2="128.46"/><line class="cls-2" x1="0.96" y1="127.5" x2="3.48" y2="127.5"/><line class="cls-2" x1="0.24" y1="124.98" x2="4.32" y2="124.98"/><polyline class="cls-2" points="0.24 130.38 4.32 130.38 4.32 124.98"/><line class="cls-2" x1="0.24" y1="129.42" x2="0.24" y2="130.38"/><path class="cls-2" d="M.18,129.28a1.68,1.68,0,0,0,.69-.87"/><line class="cls-2" x1="3.48" y1="127.5" x2="3.48" y2="128.46"/><path class="cls-2" d="M.92,127.46a1.68,1.68,0,0,0-.74-1"/><line class="cls-2" x1="0.24" y1="124.98" x2="0.24" y2="126.42"/><line class="cls-2" x1="1.2" y1="123.66" x2="2.64" y2="123.66"/><line class="cls-2" x1="2.88" y1="124.02" x2="2.88" y2="124.98"/><line class="cls-2" x1="2.52" y1="127.5" x2="2.4" y2="128.46"/><path class="cls-2" d="M2.88,123.93a.24.24,0,0,0-.21-.26h0"/><circle class="cls-2" cx="1.44" cy="134.7" r="0.12"/><line class="cls-2" x1="1.8" y1="134.34" x2="2.28" y2="130.38"/><line class="cls-2" x1="0.96" y1="124.98" x2="0.96" y2="123.9"/><line class="cls-2" x1="0.96" y1="127.5" x2="0.96" y2="128.46"/><line class="cls-2" x1="0.96" y1="130.38" x2="0.96" y2="134.7"/><path class="cls-2" d="M1.2,123.66a.24.24,0,0,0-.24.24H1"/><path class="cls-2" d="M1,134.7a.48.48,0,1,0,.8-.36"/></g></g></svg>