<svg xmlns="http://www.w3.org/2000/svg" viewBox="0 0 12.12 11.64"><defs><style>.cls-1,.cls-3{fill:none;stroke:#fff;stroke-linecap:round;stroke-linejoin:round;}.cls-1{stroke-width:0.24px;}.cls-2{fill:#fff;}.cls-3{stroke-width:0.36px;}</style></defs><title>Std Plan</title><g id="Layer_2" data-name="Layer 2"><g id="Layer_1-2" data-name="Layer 1"><line class="cls-1" x1="8.52" y1="6.24" x2="8.52" y2="6.24"/><rect class="cls-2" x="8.4" y="6.12" width="0.12" height="0.12"/><path class="cls-1" d="M8.49,6.17a2.52,2.52,0,0,0,0-.82"/><path class="cls-1" d="M10.28,5.5a2,2,0,0,0-1.65-.09"/><path class="cls-1" d="M10.19,6.09a4.2,4.2,0,0,0,0-.66"/><line class="cls-1" x1="10.2" y1="6.12" x2="10.2" y2="6.12"/><rect class="cls-2" x="10.08" y="6" width="0.12" height="0.12"/><path class="cls-1" d="M8.63,6.22a2,2,0,0,0,1.65-.09"/><path class="cls-1" d="M9.59,3.58A4.2,4.2,0,0,0,8.18,2.17"/><path class="cls-1" d="M8.23,2.21a.36.36,0,0,0-.49.12l0,.07"/><line class="cls-1" x1="7.68" y1="2.4" x2="7.2" y2="3.6"/><path class="cls-1" d="M8.22,4.57a2.52,2.52,0,0,0-1-1"/><line class="cls-1" x1="8.28" y1="4.56" x2="9.36" y2="4.2"/><path class="cls-1" d="M9.35,4.18a.36.36,0,0,0,.23-.46l0-.07"/><line class="cls-1" x1="0.12" y1="5.76" x2="12" y2="5.76"/><line class="cls-1" x1="6" y1="0.12" x2="6" y2="11.52"/><circle class="cls-3" cx="6" cy="5.76" r="1.92"/><circle class="cls-3" cx="6" cy="5.76" r="4.92"/><line class="cls-1" x1="6.48" y1="3.24" x2="6.48" y2="3.24"/><rect class="cls-2" x="6.36" y="3.12" width="0.12" height="0.12"/><path class="cls-1" d="M6.41,3.27a2.52,2.52,0,0,0-.82,0"/><path class="cls-1" d="M5.74,1.6a2,2,0,0,0-.09,1.65"/><path class="cls-1" d="M6.33,1.57a4.2,4.2,0,0,0-.66,0"/><line class="cls-1" x1="6.36" y1="1.56" x2="6.36" y2="1.56"/><rect class="cls-2" x="6.24" y="1.44" width="0.12" height="0.12"/><path class="cls-1" d="M6.46,3.25A2,2,0,0,0,6.38,1.6"/><path class="cls-1" d="M3.82,2.17A4.2,4.2,0,0,0,2.41,3.58"/><path class="cls-1" d="M2.45,3.65a.36.36,0,0,0,.12.49l.07,0"/><line class="cls-1" x1="2.64" y1="4.2" x2="3.84" y2="4.56"/><path class="cls-1" d="M4.81,3.54a2.52,2.52,0,0,0-1,1"/><line class="cls-1" x1="4.8" y1="3.6" x2="4.44" y2="2.4"/><path class="cls-1" d="M4.42,2.41A.36.36,0,0,0,4,2.18l-.07,0"/><line class="cls-1" x1="3.48" y1="5.4" x2="3.48" y2="5.4"/><rect class="cls-2" x="3.36" y="5.28" width="0.12" height="0.12"/><path class="cls-1" d="M3.51,5.35a2.52,2.52,0,0,0,0,.82"/><path class="cls-1" d="M1.84,6.14a2,2,0,0,0,1.65.09"/><path class="cls-1" d="M1.81,5.43a4.2,4.2,0,0,0,0,.66"/><line class="cls-1" x1="1.8" y1="5.52" x2="1.8" y2="5.52"/><rect class="cls-2" x="1.68" y="5.4" width="0.12" height="0.12"/><path class="cls-1" d="M3.49,5.42a2,2,0,0,0-1.65.09"/><path class="cls-1" d="M2.41,7.94A4.2,4.2,0,0,0,3.82,9.35"/><path class="cls-1" d="M3.89,9.31a.36.36,0,0,0,.49-.12l0-.07"/><line class="cls-1" x1="4.44" y1="9.12" x2="4.8" y2="8.04"/><path class="cls-1" d="M3.78,6.95a2.52,2.52,0,0,0,1,1"/><line class="cls-1" x1="3.84" y1="6.96" x2="2.64" y2="7.44"/><path class="cls-1" d="M2.65,7.46a.36.36,0,0,0-.23.46l0,.07"/><line class="cls-1" x1="5.64" y1="8.28" x2="5.64" y2="8.28"/><rect class="cls-2" x="5.52" y="8.16" width="0.12" height="0.12"/><path class="cls-1" d="M5.59,8.25a2.52,2.52,0,0,0,.82,0"/><path class="cls-1" d="M6.38,10a2,2,0,0,0,.09-1.65"/><path class="cls-1" d="M5.67,9.95a4.2,4.2,0,0,0,.66,0"/><line class="cls-1" x1="5.76" y1="9.96" x2="5.76" y2="9.96"/><rect class="cls-2" x="5.64" y="9.84" width="0.12" height="0.12"/><path class="cls-1" d="M5.65,8.39A2,2,0,0,0,5.74,10"/><path class="cls-1" d="M8.18,9.35A4.2,4.2,0,0,0,9.59,7.94"/><path class="cls-1" d="M9.55,8a.36.36,0,0,0-.12-.49l-.07,0"/><line class="cls-1" x1="9.36" y1="7.44" x2="8.28" y2="6.96"/><path class="cls-1" d="M7.19,8a2.52,2.52,0,0,0,1-1"/><line class="cls-1" x1="7.2" y1="8.04" x2="7.68" y2="9.12"/><path class="cls-1" d="M7.7,9.11a.36.36,0,0,0,.46.23l.07,0"/></g></g></svg>