<svg xmlns="http://www.w3.org/2000/svg" viewBox="0 0 161.45 4.44"><defs><style>.cls-1,.cls-2{fill:none;stroke:#000;stroke-linecap:round;stroke-linejoin:round;}.cls-1{stroke-width:0.36px;}.cls-2{stroke-width:0.24px;}</style></defs><title>2.0m plan</title><g id="Layer_2" data-name="Layer 2"><g id="Layer_1-2" data-name="Layer 1"><path class="cls-1" d="M.18,2.52a1.92,1.92,0,0,0,0-.6"/><line class="cls-1" x1="1.28" y1="2.46" x2="4.4" y2="2.46"/><line class="cls-1" x1="4.4" y1="4.14" x2="4.4" y2="0.18"/><rect x="1.16" y="2.34" width="0.12" height="0.12"/><line class="cls-1" x1="1.16" y1="1.98" x2="1.16" y2="2.46"/><rect x="1.16" y="1.86" width="0.12" height="0.12"/><line class="cls-1" x1="1.28" y1="1.98" x2="4.4" y2="1.98"/><rect x="1.16" y="1.86" width="0.12" height="0.12"/><line class="cls-1" x1="1.16" y1="2.46" x2="1.16" y2="1.98"/><rect x="1.16" y="2.34" width="0.12" height="0.12"/><line class="cls-1" x1="3.68" y1="4.14" x2="4.4" y2="4.14"/><path class="cls-1" d="M3.62,4.13h.07"/><line class="cls-1" x1="0.44" y1="2.94" x2="3.56" y2="4.14"/><path class="cls-1" d="M.32,2.7a.24.24,0,0,0,.15.22"/><line class="cls-1" x1="0.32" y1="1.74" x2="0.32" y2="1.86"/><line class="cls-1" x1="0.32" y1="2.58" x2="0.32" y2="2.7"/><path class="cls-1" d="M.47,1.52a.24.24,0,0,0-.15.22"/><line class="cls-1" x1="3.56" y1="0.3" x2="0.44" y2="1.5"/><path class="cls-1" d="M3.68.3H3.62"/><line class="cls-1" x1="4.4" y1="0.18" x2="3.68" y2="0.18"/><line class="cls-2" x1="4.4" y1="2.22" x2="20.84" y2="2.22"/><line class="cls-2" x1="23.84" y1="2.22" x2="26.96" y2="2.22"/><line class="cls-2" x1="29.96" y1="2.22" x2="48.44" y2="2.22"/><line class="cls-2" x1="51.56" y1="2.22" x2="54.56" y2="2.22"/><line class="cls-2" x1="57.68" y1="2.22" x2="76.16" y2="2.22"/><line class="cls-2" x1="79.16" y1="2.22" x2="82.28" y2="2.22"/><line class="cls-2" x1="85.28" y1="2.22" x2="103.76" y2="2.22"/><line class="cls-2" x1="106.88" y1="2.22" x2="109.88" y2="2.22"/><line class="cls-2" x1="113" y1="2.22" x2="131.48" y2="2.22"/><line class="cls-2" x1="134.48" y1="2.22" x2="137.6" y2="2.22"/><line class="cls-2" x1="140.6" y1="2.22" x2="157.04" y2="2.22"/><polyline class="cls-1" points="4.4 0.18 157.04 0.18 157.04 4.26 4.4 4.26 4.4 0.18"/><path class="cls-1" d="M161.27,1.92a1.92,1.92,0,0,0,0,.6"/><line class="cls-1" x1="160.28" y1="2.46" x2="157.04" y2="2.46"/><line class="cls-1" x1="157.04" y1="4.14" x2="157.04" y2="0.18"/><rect x="160.16" y="2.34" width="0.12" height="0.12"/><line class="cls-1" x1="160.28" y1="1.98" x2="160.28" y2="2.46"/><rect x="160.16" y="1.86" width="0.12" height="0.12"/><line class="cls-1" x1="160.28" y1="1.98" x2="157.04" y2="1.98"/><rect x="160.16" y="1.86" width="0.12" height="0.12"/><line class="cls-1" x1="160.28" y1="2.46" x2="160.28" y2="1.98"/><rect x="160.16" y="2.34" width="0.12" height="0.12"/><line class="cls-1" x1="157.76" y1="4.14" x2="157.04" y2="4.14"/><path class="cls-1" d="M157.76,4.14h.07"/><line class="cls-1" x1="161" y1="2.94" x2="157.88" y2="4.14"/><path class="cls-1" d="M161,2.92a.24.24,0,0,0,.15-.22"/><line class="cls-1" x1="161.12" y1="1.74" x2="161.12" y2="1.86"/><line class="cls-1" x1="161.12" y1="2.58" x2="161.12" y2="2.7"/><path class="cls-1" d="M161.12,1.74a.24.24,0,0,0-.15-.22"/><line class="cls-1" x1="157.88" y1="0.3" x2="161" y2="1.5"/><path class="cls-1" d="M157.83.31h-.07"/><line class="cls-1" x1="157.04" y1="0.18" x2="157.76" y2="0.18"/></g></g></svg>