<svg xmlns="http://www.w3.org/2000/svg" viewBox="0 0 10.44 82.8"><defs><style>.cls-1,.cls-2{fill:none;stroke:#000;stroke-linecap:round;stroke-linejoin:round;}.cls-1{stroke-width:0.36px;}.cls-2{stroke-width:0.24px;}</style></defs><title>2.0m Std</title><g id="Layer_2" data-name="Layer 2"><g id="Layer_1-2" data-name="Layer 1"><circle class="cls-1" cx="5.22" cy="79.74" r="0.48"/><polyline class="cls-1" points="0.18 9.18 10.26 9.18 10.26 8.46 0.18 8.46 0.18 9.18 10.26 9.18 10.26 8.46 0.18 8.46 0.18 9.18"/><circle class="cls-1" cx="5.22" cy="17.94" r="0.48"/><line class="cls-2" x1="5.22" y1="9.18" x2="5.22" y2="27.42"/><line class="cls-2" x1="5.22" y1="30.54" x2="5.22" y2="33.54"/><line class="cls-2" x1="5.22" y1="36.66" x2="5.22" y2="55.14"/><line class="cls-2" x1="5.22" y1="58.14" x2="5.22" y2="61.26"/><line class="cls-2" x1="5.22" y1="64.26" x2="5.22" y2="82.62"/><polyline class="cls-1" points="3.3 8.46 7.26 8.46 7.26 0.18 3.3 0.18 3.3 8.46"/><line class="cls-2" x1="5.22" y1="0.18" x2="5.22" y2="22.98"/><line class="cls-2" x1="5.22" y1="25.98" x2="5.22" y2="29.1"/><line class="cls-2" x1="5.22" y1="32.22" x2="5.22" y2="50.58"/><line class="cls-2" x1="5.22" y1="53.7" x2="5.22" y2="56.7"/><line class="cls-2" x1="5.22" y1="59.82" x2="5.22" y2="82.62"/><line class="cls-2" x1="2.46" y1="73.98" x2="8.1" y2="73.98"/><line class="cls-2" x1="2.46" y1="23.7" x2="8.1" y2="23.7"/><polyline class="cls-1" points="0.18 50.34 10.26 50.34 10.26 49.62 0.18 49.62 0.18 50.34 10.26 50.34 10.26 49.62 0.18 49.62 0.18 50.34"/><polyline class="cls-1" points="3.3 82.62 7.26 82.62 7.26 50.34 3.3 50.34 3.3 82.62"/><polyline class="cls-1" points="0.18 9.18 10.26 9.18 10.26 8.46 0.18 8.46 0.18 9.18"/><polyline class="cls-1" points="3.3 49.62 7.26 49.62 7.26 9.18 3.3 9.18 3.3 49.62"/><polyline class="cls-1" points="0.18 50.34 10.26 50.34 10.26 49.62 0.18 49.62 0.18 50.34"/></g></g></svg>