<svg xmlns="http://www.w3.org/2000/svg" viewBox="0 0 10.44 41.64"><defs><style>.cls-1,.cls-2{fill:none;stroke:#fff;stroke-linecap:round;stroke-linejoin:round;}.cls-1{stroke-width:0.36px;}.cls-2{stroke-width:0.24px;}</style></defs><title>0.5m Std</title><g id="Layer_2" data-name="Layer 2"><g id="Layer_1-2" data-name="Layer 1"><circle class="cls-1" cx="5.22" cy="38.58" r="0.48"/><circle class="cls-1" cx="5.22" cy="17.94" r="0.48"/><line class="cls-2" x1="5.22" y1="0.18" x2="5.22" y2="16.26"/><line class="cls-2" x1="5.22" y1="19.26" x2="5.22" y2="22.38"/><line class="cls-2" x1="5.22" y1="25.38" x2="5.22" y2="41.46"/><line class="cls-2" x1="5.22" y1="0.18" x2="5.22" y2="16.26"/><line class="cls-2" x1="5.22" y1="19.26" x2="5.22" y2="22.38"/><line class="cls-2" x1="5.22" y1="25.38" x2="5.22" y2="41.46"/><line class="cls-2" x1="2.34" y1="32.82" x2="7.98" y2="32.82"/><line class="cls-2" x1="2.34" y1="23.7" x2="7.98" y2="23.7"/><polyline class="cls-1" points="3.18 8.46 7.14 8.46 7.14 0.18 3.18 0.18 3.18 8.46"/><polyline class="cls-1" points="0.18 9.18 10.26 9.18 10.26 8.46 0.18 8.46 0.18 9.18"/><polyline class="cls-1" points="3.18 41.46 7.14 41.46 7.14 9.18 3.18 9.18 3.18 41.46"/></g></g></svg>