<svg xmlns="http://www.w3.org/2000/svg" viewBox="0 0 202.45 11.88"><defs><style>.cls-1,.cls-2{fill:none;stroke:#fff;stroke-linecap:round;stroke-linejoin:round;}.cls-1{stroke-width:0.36px;}.cls-2{stroke-width:0.24px;}</style></defs><title>2.5m</title><g id="Layer_2" data-name="Layer 2"><g id="Layer_1-2" data-name="Layer 1"><line class="cls-1" x1="0.96" y1="4.98" x2="3.48" y2="4.98"/><line class="cls-1" x1="0.96" y1="3.9" x2="3.48" y2="3.9"/><line class="cls-1" x1="0.24" y1="1.38" x2="4.32" y2="1.38"/><polyline class="cls-1" points="0.24 6.78 4.32 6.78 4.32 1.38"/><line class="cls-1" x1="0.24" y1="5.82" x2="0.24" y2="6.78"/><path class="cls-1" d="M.18,5.8a1.68,1.68,0,0,0,.69-.87"/><line class="cls-1" x1="3.48" y1="3.9" x2="3.48" y2="4.98"/><path class="cls-1" d="M.92,4A1.68,1.68,0,0,0,.18,3"/><line class="cls-1" x1="0.24" y1="1.38" x2="0.24" y2="2.94"/><line class="cls-1" x1="1.32" y1="0.18" x2="2.76" y2="0.18"/><line class="cls-1" x1="3" y1="0.42" x2="2.88" y2="1.38"/><line class="cls-1" x1="2.64" y1="3.9" x2="2.52" y2="4.98"/><path class="cls-1" d="M3,.45A.24.24,0,0,0,2.79.18h0"/><circle class="cls-1" cx="1.56" cy="11.22" r="0.12"/><line class="cls-1" x1="1.8" y1="10.86" x2="2.28" y2="6.78"/><line class="cls-1" x1="1.08" y1="1.38" x2="1.08" y2="0.42"/><line class="cls-1" x1="1.08" y1="3.9" x2="1.08" y2="4.98"/><line class="cls-1" x1="1.08" y1="6.78" x2="1.08" y2="11.22"/><path class="cls-1" d="M1.32.18a.24.24,0,0,0-.24.24h0"/><path class="cls-1" d="M1.08,11.22a.48.48,0,1,0,.8-.36"/><line class="cls-2" x1="4.32" y1="4.5" x2="13.68" y2="4.5"/><line class="cls-2" x1="16.68" y1="4.5" x2="19.8" y2="4.5"/><line class="cls-2" x1="22.8" y1="4.5" x2="41.28" y2="4.5"/><line class="cls-2" x1="44.4" y1="4.5" x2="47.4" y2="4.5"/><line class="cls-2" x1="50.52" y1="4.5" x2="69" y2="4.5"/><line class="cls-2" x1="72" y1="4.5" x2="75.12" y2="4.5"/><line class="cls-2" x1="78.12" y1="4.5" x2="96.6" y2="4.5"/><line class="cls-2" x1="99.72" y1="4.5" x2="102.72" y2="4.5"/><line class="cls-2" x1="105.84" y1="4.5" x2="124.32" y2="4.5"/><line class="cls-2" x1="127.32" y1="4.5" x2="130.44" y2="4.5"/><line class="cls-2" x1="133.44" y1="4.5" x2="151.92" y2="4.5"/><line class="cls-2" x1="155.04" y1="4.5" x2="158.04" y2="4.5"/><line class="cls-2" x1="161.16" y1="4.5" x2="179.52" y2="4.5"/><line class="cls-2" x1="182.64" y1="4.5" x2="185.76" y2="4.5"/><line class="cls-2" x1="188.76" y1="4.5" x2="198.12" y2="4.5"/><polyline class="cls-1" points="4.32 2.46 198.12 2.46 198.12 6.42 4.32 6.42 4.32 2.46"/><path class="cls-1" d="M200.56,10.86a.48.48,0,1,0,.8.36"/><path class="cls-1" d="M201.36.42a.24.24,0,0,0-.24-.24h0"/><line class="cls-1" x1="201.36" y1="6.78" x2="201.36" y2="11.22"/><line class="cls-1" x1="201.36" y1="3.9" x2="201.36" y2="4.98"/><line class="cls-1" x1="201.36" y1="1.38" x2="201.36" y2="0.42"/><line class="cls-1" x1="200.52" y1="10.86" x2="200.16" y2="6.78"/><circle class="cls-1" cx="200.88" cy="11.22" r="0.12"/><path class="cls-1" d="M199.68.18a.24.24,0,0,0-.24.24v0"/><line class="cls-1" x1="199.8" y1="3.9" x2="199.92" y2="4.98"/><line class="cls-1" x1="199.44" y1="0.42" x2="199.56" y2="1.38"/><line class="cls-1" x1="201.12" y1="0.18" x2="199.68" y2="0.18"/><line class="cls-1" x1="202.2" y1="1.38" x2="202.2" y2="2.94"/><path class="cls-1" d="M202.27,3a1.68,1.68,0,0,0-.74,1"/><line class="cls-1" x1="198.96" y1="3.9" x2="198.96" y2="4.98"/><path class="cls-1" d="M201.58,4.94a1.68,1.68,0,0,0,.69.87"/><line class="cls-1" x1="202.2" y1="5.82" x2="202.2" y2="6.78"/><polyline class="cls-1" points="198.12 1.38 198.12 6.78 202.2 6.78"/><line class="cls-1" x1="202.2" y1="1.38" x2="198.12" y2="1.38"/><line class="cls-1" x1="201.48" y1="3.9" x2="198.96" y2="3.9"/><line class="cls-1" x1="201.48" y1="4.98" x2="198.96" y2="4.98"/></g></g></svg>