<svg xmlns="http://www.w3.org/2000/svg" viewBox="0 0 79.01 4.44"><defs><style>.cls-1,.cls-3{fill:none;stroke:#fff;stroke-linecap:round;stroke-linejoin:round;}.cls-1{stroke-width:0.36px;}.cls-2{fill:#fff;}.cls-3{stroke-width:0.24px;}</style></defs><title>1m plan</title><g id="Layer_2" data-name="Layer 2"><g id="Layer_1-2" data-name="Layer 1"><path class="cls-1" d="M.18,2.52a1.92,1.92,0,0,0,0-.6"/><line class="cls-1" x1="1.28" y1="2.46" x2="4.4" y2="2.46"/><line class="cls-1" x1="4.4" y1="4.26" x2="4.4" y2="0.3"/><rect class="cls-2" x="1.16" y="2.34" width="0.12" height="0.12"/><line class="cls-1" x1="1.16" y1="1.98" x2="1.16" y2="2.46"/><rect class="cls-2" x="1.16" y="1.86" width="0.12" height="0.12"/><line class="cls-1" x1="1.28" y1="1.98" x2="4.4" y2="1.98"/><rect class="cls-2" x="1.16" y="1.86" width="0.12" height="0.12"/><line class="cls-1" x1="1.16" y1="2.46" x2="1.16" y2="1.98"/><rect class="cls-2" x="1.16" y="2.34" width="0.12" height="0.12"/><line class="cls-1" x1="3.68" y1="4.26" x2="4.4" y2="4.26"/><path class="cls-1" d="M3.62,4.13h.07"/><line class="cls-1" x1="0.44" y1="2.94" x2="3.56" y2="4.14"/><path class="cls-1" d="M.32,2.7a.24.24,0,0,0,.15.22"/><line class="cls-1" x1="0.32" y1="1.74" x2="0.32" y2="1.86"/><line class="cls-1" x1="0.32" y1="2.58" x2="0.32" y2="2.7"/><path class="cls-1" d="M.47,1.52a.24.24,0,0,0-.15.22"/><line class="cls-1" x1="3.56" y1="0.3" x2="0.44" y2="1.5"/><path class="cls-1" d="M3.68.3H3.62"/><line class="cls-1" x1="4.4" y1="0.3" x2="3.68" y2="0.3"/><line class="cls-3" x1="4.4" y1="2.22" x2="21.08" y2="2.22"/><line class="cls-3" x1="24.2" y1="2.22" x2="27.2" y2="2.22"/><line class="cls-3" x1="30.32" y1="2.22" x2="48.8" y2="2.22"/><line class="cls-3" x1="51.8" y1="2.22" x2="54.92" y2="2.22"/><line class="cls-3" x1="57.92" y1="2.22" x2="74.6" y2="2.22"/><polyline class="cls-1" points="4.4 0.18 74.6 0.18 74.6 4.26 4.4 4.26 4.4 0.18"/><path class="cls-1" d="M78.83,1.92a1.92,1.92,0,0,0,0,.6"/><line class="cls-1" x1="77.84" y1="2.46" x2="74.6" y2="2.46"/><line class="cls-1" x1="74.6" y1="4.26" x2="74.6" y2="0.3"/><rect class="cls-2" x="77.72" y="2.34" width="0.12" height="0.12"/><line class="cls-1" x1="77.96" y1="1.98" x2="77.96" y2="2.46"/><rect class="cls-2" x="77.72" y="1.86" width="0.12" height="0.12"/><line class="cls-1" x1="77.84" y1="1.98" x2="74.6" y2="1.98"/><rect class="cls-2" x="77.72" y="1.86" width="0.12" height="0.12"/><line class="cls-1" x1="77.96" y1="2.46" x2="77.96" y2="1.98"/><rect class="cls-2" x="77.72" y="2.34" width="0.12" height="0.12"/><line class="cls-1" x1="75.44" y1="4.26" x2="74.6" y2="4.26"/><path class="cls-1" d="M75.44,4.14h.07"/><line class="cls-1" x1="78.56" y1="2.94" x2="75.44" y2="4.14"/><path class="cls-1" d="M78.53,2.92a.24.24,0,0,0,.15-.22"/><line class="cls-1" x1="78.8" y1="1.74" x2="78.8" y2="1.86"/><line class="cls-1" x1="78.8" y1="2.58" x2="78.8" y2="2.7"/><path class="cls-1" d="M78.68,1.74a.24.24,0,0,0-.15-.22"/><line class="cls-1" x1="75.44" y1="0.3" x2="78.56" y2="1.5"/><path class="cls-1" d="M75.51.31h-.07"/><line class="cls-1" x1="74.6" y1="0.3" x2="75.44" y2="0.3"/></g></g></svg>