<svg xmlns="http://www.w3.org/2000/svg" viewBox="0 0 37.57 11.95"><defs><style>.cls-1,.cls-2{fill:none;stroke:#fff;stroke-linecap:round;stroke-linejoin:round;}.cls-1{stroke-width:0.36px;}.cls-2{stroke-width:0.24px;}</style></defs><title>0.5m</title><g id="Layer_2" data-name="Layer 2"><g id="Layer_1-2" data-name="Layer 1"><line class="cls-1" x1="0.96" y1="4.98" x2="3.48" y2="4.98"/><line class="cls-1" x1="0.96" y1="3.9" x2="3.48" y2="3.9"/><line class="cls-1" x1="0.24" y1="1.38" x2="4.32" y2="1.38"/><polyline class="cls-1" points="0.24 6.78 4.32 6.78 4.32 1.38"/><line class="cls-1" x1="0.24" y1="5.82" x2="0.24" y2="6.78"/><path class="cls-1" d="M.18,5.8a1.68,1.68,0,0,0,.69-.87"/><line class="cls-1" x1="3.48" y1="3.9" x2="3.48" y2="4.98"/><path class="cls-1" d="M.92,4A1.68,1.68,0,0,0,.18,3"/><line class="cls-1" x1="0.24" y1="1.38" x2="0.24" y2="2.94"/><line class="cls-1" x1="1.32" y1="0.18" x2="2.76" y2="0.18"/><line class="cls-1" x1="3" y1="0.42" x2="2.88" y2="1.38"/><line class="cls-1" x1="2.64" y1="3.9" x2="2.52" y2="4.98"/><path class="cls-1" d="M3,.45A.24.24,0,0,0,2.79.18h0"/><circle class="cls-1" cx="1.56" cy="11.22" r="0.12"/><line class="cls-1" x1="1.8" y1="10.86" x2="2.28" y2="6.78"/><line class="cls-1" x1="1.08" y1="1.38" x2="1.08" y2="0.42"/><line class="cls-1" x1="1.08" y1="3.9" x2="1.08" y2="4.98"/><line class="cls-1" x1="1.08" y1="6.78" x2="1.08" y2="11.22"/><path class="cls-1" d="M1.32.18a.24.24,0,0,0-.24.24h0"/><path class="cls-1" d="M1.08,11.22a.48.48,0,1,0,.8-.36"/><line class="cls-2" x1="4.32" y1="4.5" x2="21" y2="4.5"/><line class="cls-2" x1="24" y1="4.5" x2="27.12" y2="4.5"/><line class="cls-2" x1="30.24" y1="4.5" x2="33.22" y2="4.5"/><polyline class="cls-1" points="4.32 2.46 33.24 2.46 33.24 6.42 4.32 6.42 4.32 2.46"/><path class="cls-1" d="M35.68,10.94a.48.48,0,1,0,.8.36"/><path class="cls-1" d="M36.48.49a.24.24,0,0,0-.24-.24h0"/><line class="cls-1" x1="36.48" y1="6.85" x2="36.48" y2="11.29"/><line class="cls-1" x1="36.48" y1="3.97" x2="36.48" y2="5.05"/><line class="cls-1" x1="36.48" y1="1.45" x2="36.48" y2="0.49"/><line class="cls-1" x1="35.76" y1="10.93" x2="35.28" y2="6.85"/><circle class="cls-1" cx="36" cy="11.29" r="0.12"/><path class="cls-1" d="M34.8.25a.24.24,0,0,0-.24.24v0"/><line class="cls-1" x1="34.92" y1="3.97" x2="35.04" y2="5.05"/><line class="cls-1" x1="34.56" y1="0.49" x2="34.68" y2="1.45"/><line class="cls-1" x1="36.24" y1="0.25" x2="34.8" y2="0.25"/><line class="cls-1" x1="37.32" y1="1.45" x2="37.32" y2="3.01"/><path class="cls-1" d="M37.39,3a1.68,1.68,0,0,0-.74,1"/><line class="cls-1" x1="34.08" y1="3.97" x2="34.08" y2="5.05"/><path class="cls-1" d="M36.7,5a1.68,1.68,0,0,0,.69.87"/><line class="cls-1" x1="37.32" y1="5.89" x2="37.32" y2="6.85"/><polyline class="cls-1" points="33.24 1.38 33.24 6.78 37.32 6.78"/><line class="cls-1" x1="37.32" y1="1.45" x2="33.24" y2="1.45"/><line class="cls-1" x1="36.6" y1="3.97" x2="34.08" y2="3.97"/><line class="cls-1" x1="36.6" y1="5.05" x2="34.08" y2="5.05"/></g></g></svg>