<svg xmlns="http://www.w3.org/2000/svg" viewBox="0 0 243.61 11.88"><defs><style>.cls-1,.cls-2{fill:none;stroke:#fff;stroke-linecap:round;stroke-linejoin:round;}.cls-1{stroke-width:0.36px;}.cls-2{stroke-width:0.24px;}</style></defs><title>3m</title><g id="Layer_2" data-name="Layer 2"><g id="Layer_1-2" data-name="Layer 1"><line class="cls-1" x1="0.96" y1="4.98" x2="3.48" y2="4.98"/><line class="cls-1" x1="0.96" y1="4.02" x2="3.48" y2="4.02"/><line class="cls-1" x1="0.24" y1="1.38" x2="4.32" y2="1.38"/><polyline class="cls-1" points="0.24 6.9 4.32 6.9 4.32 1.38"/><line class="cls-1" x1="0.24" y1="5.82" x2="0.24" y2="6.9"/><path class="cls-1" d="M.18,5.8a1.68,1.68,0,0,0,.69-.87"/><line class="cls-1" x1="3.48" y1="4.02" x2="3.48" y2="4.98"/><path class="cls-1" d="M.92,4A1.68,1.68,0,0,0,.18,3"/><line class="cls-1" x1="0.24" y1="1.38" x2="0.24" y2="2.94"/><line class="cls-1" x1="1.32" y1="0.18" x2="2.76" y2="0.18"/><line class="cls-1" x1="3" y1="0.42" x2="2.88" y2="1.38"/><line class="cls-1" x1="2.64" y1="4.02" x2="2.52" y2="4.98"/><path class="cls-1" d="M3,.45A.24.24,0,0,0,2.79.18h0"/><circle class="cls-1" cx="1.56" cy="11.22" r="0.12"/><line class="cls-1" x1="1.8" y1="10.86" x2="2.28" y2="6.9"/><line class="cls-1" x1="1.08" y1="1.38" x2="1.08" y2="0.42"/><line class="cls-1" x1="1.08" y1="4.02" x2="1.08" y2="4.98"/><line class="cls-1" x1="1.08" y1="6.9" x2="1.08" y2="11.22"/><path class="cls-1" d="M1.32.18a.24.24,0,0,0-.24.24h0"/><path class="cls-1" d="M1.08,11.22a.48.48,0,1,0,.8-.36"/><line class="cls-2" x1="4.32" y1="4.5" x2="20.4" y2="4.5"/><line class="cls-2" x1="23.52" y1="4.5" x2="26.52" y2="4.5"/><line class="cls-2" x1="29.64" y1="4.5" x2="48" y2="4.5"/><line class="cls-2" x1="51.12" y1="4.5" x2="54.24" y2="4.5"/><line class="cls-2" x1="57.24" y1="4.5" x2="75.72" y2="4.5"/><line class="cls-2" x1="78.84" y1="4.5" x2="81.84" y2="4.5"/><line class="cls-2" x1="84.96" y1="4.5" x2="103.32" y2="4.5"/><line class="cls-2" x1="106.44" y1="4.5" x2="109.56" y2="4.5"/><line class="cls-2" x1="112.56" y1="4.5" x2="131.04" y2="4.5"/><line class="cls-2" x1="134.16" y1="4.5" x2="137.16" y2="4.5"/><line class="cls-2" x1="140.28" y1="4.5" x2="158.64" y2="4.5"/><line class="cls-2" x1="161.76" y1="4.5" x2="164.88" y2="4.5"/><line class="cls-2" x1="167.88" y1="4.5" x2="186.36" y2="4.5"/><line class="cls-2" x1="189.36" y1="4.5" x2="192.48" y2="4.5"/><line class="cls-2" x1="195.6" y1="4.5" x2="213.96" y2="4.5"/><line class="cls-2" x1="217.08" y1="4.5" x2="220.2" y2="4.5"/><line class="cls-2" x1="223.2" y1="4.5" x2="239.28" y2="4.5"/><polyline class="cls-1" points="4.32 2.46 239.28 2.46 239.28 6.42 4.32 6.42 4.32 2.46"/><path class="cls-1" d="M241.72,10.86a.48.48,0,1,0,.8.36"/><path class="cls-1" d="M242.52.42a.24.24,0,0,0-.24-.24h0"/><line class="cls-1" x1="242.64" y1="6.9" x2="242.64" y2="11.22"/><line class="cls-1" x1="242.64" y1="4.02" x2="242.64" y2="4.98"/><line class="cls-1" x1="242.64" y1="1.38" x2="242.64" y2="0.42"/><line class="cls-1" x1="241.8" y1="10.86" x2="241.32" y2="6.9"/><circle class="cls-1" cx="242.04" cy="11.22" r="0.12"/><path class="cls-1" d="M240.84.18a.24.24,0,0,0-.24.24v0"/><line class="cls-1" x1="240.96" y1="4.02" x2="241.08" y2="4.98"/><line class="cls-1" x1="240.6" y1="0.42" x2="240.72" y2="1.38"/><line class="cls-1" x1="242.28" y1="0.18" x2="240.84" y2="0.18"/><line class="cls-1" x1="243.36" y1="1.38" x2="243.36" y2="2.94"/><path class="cls-1" d="M243.43,3a1.68,1.68,0,0,0-.74,1"/><line class="cls-1" x1="240.12" y1="4.02" x2="240.12" y2="4.98"/><path class="cls-1" d="M242.74,4.94a1.68,1.68,0,0,0,.69.87"/><line class="cls-1" x1="243.36" y1="5.82" x2="243.36" y2="6.9"/><polyline class="cls-1" points="239.28 1.38 239.28 6.9 243.36 6.9"/><line class="cls-1" x1="243.36" y1="1.38" x2="239.28" y2="1.38"/><line class="cls-1" x1="242.64" y1="4.02" x2="240.12" y2="4.02"/><line class="cls-1" x1="242.64" y1="4.98" x2="240.12" y2="4.98"/></g></g></svg>