<svg xmlns="http://www.w3.org/2000/svg" viewBox="0 0 161.17 176.64"><defs><style>.cls-1,.cls-2{fill:none;stroke:#000;stroke-linecap:round;stroke-linejoin:round;}.cls-1{stroke-width:0.24px;}.cls-2{stroke-width:0.36px;}</style></defs><title>2m, 2m</title><g id="Layer_2" data-name="Layer 2"><g id="Layer_1-2" data-name="Layer 1"><line class="cls-1" x1="4.32" y1="169.26" x2="11.64" y2="161.34"/><line class="cls-1" x1="13.8" y1="159.06" x2="15.84" y2="156.78"/><line class="cls-1" x1="18" y1="154.5" x2="30.48" y2="140.94"/><line class="cls-1" x1="32.52" y1="138.78" x2="34.68" y2="136.5"/><line class="cls-1" x1="36.72" y1="134.22" x2="49.32" y2="120.66"/><line class="cls-1" x1="51.36" y1="118.38" x2="53.4" y2="116.22"/><line class="cls-1" x1="55.56" y1="113.94" x2="68.04" y2="100.38"/><line class="cls-1" x1="70.08" y1="98.1" x2="72.24" y2="95.82"/><line class="cls-1" x1="74.28" y1="93.66" x2="86.88" y2="80.1"/><line class="cls-1" x1="88.92" y1="77.82" x2="90.96" y2="75.54"/><line class="cls-1" x1="93.12" y1="73.38" x2="105.6" y2="59.82"/><line class="cls-1" x1="107.76" y1="57.54" x2="109.8" y2="55.26"/><line class="cls-1" x1="111.84" y1="52.98" x2="124.44" y2="39.54"/><line class="cls-1" x1="126.48" y1="37.26" x2="128.64" y2="34.98"/><line class="cls-1" x1="130.68" y1="32.7" x2="143.16" y2="19.14"/><line class="cls-1" x1="145.32" y1="16.98" x2="147.36" y2="14.7"/><line class="cls-1" x1="149.52" y1="12.42" x2="156.84" y2="4.5"/><line class="cls-2" x1="5.04" y1="171.42" x2="157.32" y2="6.78"/><path class="cls-2" d="M4.44,171.54a.72.72,0,0,0,.53-.23"/><line class="cls-2" x1="4.32" y1="166.38" x2="156.84" y2="1.5"/><path class="cls-2" d="M159.4,10.86a.48.48,0,1,0,.8.36"/><path class="cls-2" d="M160.2.42A.24.24,0,0,0,160,.18h0"/><line class="cls-2" x1="160.2" y1="6.9" x2="160.2" y2="11.22"/><line class="cls-2" x1="160.2" y1="4.02" x2="160.2" y2="4.98"/><line class="cls-2" x1="160.2" y1="1.38" x2="160.2" y2="0.42"/><line class="cls-2" x1="159.36" y1="10.86" x2="158.88" y2="6.9"/><circle class="cls-2" cx="159.72" cy="11.22" r="0.12"/><path class="cls-2" d="M158.4.18a.24.24,0,0,0-.24.24v0"/><line class="cls-2" x1="158.64" y1="4.02" x2="158.64" y2="4.98"/><line class="cls-2" x1="158.16" y1="0.42" x2="158.28" y2="1.38"/><line class="cls-2" x1="159.96" y1="0.18" x2="158.4" y2="0.18"/><line class="cls-2" x1="160.92" y1="1.38" x2="160.92" y2="2.94"/><path class="cls-2" d="M161,3a1.68,1.68,0,0,0-.74,1"/><line class="cls-2" x1="157.68" y1="4.02" x2="157.68" y2="4.98"/><path class="cls-2" d="M160.3,4.94a1.68,1.68,0,0,0,.69.87"/><line class="cls-2" x1="160.92" y1="5.82" x2="160.92" y2="6.9"/><polyline class="cls-2" points="156.84 1.38 156.84 6.9 160.92 6.9"/><line class="cls-2" x1="160.92" y1="1.38" x2="156.84" y2="1.38"/><line class="cls-2" x1="160.2" y1="4.02" x2="157.68" y2="4.02"/><line class="cls-2" x1="160.2" y1="4.98" x2="157.68" y2="4.98"/><line class="cls-2" x1="4.32" y1="171.66" x2="4.44" y2="171.66"/><line class="cls-2" x1="0.84" y1="169.74" x2="3.48" y2="169.74"/><line class="cls-2" x1="0.96" y1="168.78" x2="3.48" y2="168.78"/><line class="cls-2" x1="0.24" y1="166.26" x2="4.32" y2="166.26"/><polyline class="cls-2" points="0.24 171.66 4.32 171.66 4.32 166.26"/><line class="cls-2" x1="0.24" y1="170.7" x2="0.24" y2="171.66"/><path class="cls-2" d="M.18,170.56a1.68,1.68,0,0,0,.69-.87"/><line class="cls-2" x1="3.48" y1="168.78" x2="3.48" y2="169.74"/><path class="cls-2" d="M.92,168.74a1.68,1.68,0,0,0-.74-1"/><line class="cls-2" x1="0.24" y1="166.26" x2="0.24" y2="167.7"/><line class="cls-2" x1="1.2" y1="164.94" x2="2.64" y2="164.94"/><line class="cls-2" x1="2.88" y1="165.3" x2="2.88" y2="166.26"/><line class="cls-2" x1="2.52" y1="168.78" x2="2.4" y2="169.74"/><path class="cls-2" d="M2.88,165.21a.24.24,0,0,0-.21-.26h0"/><circle class="cls-2" cx="1.44" cy="175.98" r="0.12"/><line class="cls-2" x1="1.8" y1="175.62" x2="2.28" y2="171.66"/><line class="cls-2" x1="0.96" y1="166.26" x2="0.96" y2="165.18"/><line class="cls-2" x1="0.96" y1="168.78" x2="0.96" y2="169.74"/><line class="cls-2" x1="0.96" y1="171.66" x2="0.96" y2="175.98"/><path class="cls-2" d="M1.2,164.94a.24.24,0,0,0-.24.24H1"/><path class="cls-2" d="M1,176a.48.48,0,1,0,.8-.36"/></g></g></svg>